<svg width="100" height="100" viewBox="0 0 100 100" fill="none" xmlns="http://www.w3.org/2000/svg">
<rect width="100" height="100" rx="50" fill="#A8C9EA"/>
<path d="M72.0677 30.7547C67.3108 31.0219 57.8559 31.9947 52.0191 35.5319C51.6163 35.776 51.388 36.21 51.388 36.6637V67.9338C51.388 68.9264 52.4844 69.5537 53.4089 69.0931C59.4141 66.1008 68.099 65.2844 72.3932 65.0609C73.8594 64.9844 74.9991 63.8208 74.9991 62.4261V33.3929C75 31.871 73.6667 30.6653 72.0677 30.7547ZM47.98 35.5319C42.1441 31.9947 32.6892 31.0228 27.9323 30.7547C26.3333 30.6653 25 31.871 25 33.3929V62.4269C25 63.8226 26.1398 64.9862 27.6059 65.0618C31.9019 65.2852 40.5911 66.1025 46.5964 69.0965C47.5182 69.5563 48.6111 68.9298 48.6111 67.9398V36.6483C48.6111 36.1937 48.3837 35.7769 47.98 35.5319Z" fill="#E9F1F9"/>
</svg>
