<svg width="100" height="100" viewBox="0 0 100 100" fill="none" xmlns="http://www.w3.org/2000/svg">
<rect width="100" height="100" rx="50" fill="#A8C9EA"/>
<path d="M52.0235 65.4576H60.9387C61.6549 64.7522 62.4402 64.0186 63.2377 63.2729C64.9101 61.705 66.6557 60.0685 68.4501 58.0208C70.5009 55.679 70.7206 54.8688 71.3432 52.5753C71.4612 52.144 71.5914 51.6603 71.7623 51.0597L72.8284 47.3473L72.8406 47.307C73.4102 45.6544 73.455 44.5621 73.219 43.9333C73.1458 43.7398 73.0522 43.6108 72.9423 43.5423C72.8569 43.4858 72.7429 43.4657 72.6249 43.4778C72.3482 43.506 72.0349 43.6793 71.7501 43.9897L68.5844 51.4587C68.5559 51.5273 68.5152 51.5917 68.4705 51.6482C68.2833 51.9827 68.031 52.3092 67.7055 52.6196L62.0903 58.823C61.7851 59.1616 61.2602 59.1898 60.9225 58.8875C60.5807 58.5851 60.5522 58.0652 60.8574 57.7306L66.4767 51.5273C66.5011 51.499 66.5255 51.4708 66.554 51.4466C67.1358 50.8984 67.3189 50.3059 67.2172 49.8746C67.1847 49.7416 67.1277 49.6288 67.0463 49.5522C66.969 49.4836 66.8673 49.4353 66.7411 49.4232C66.2407 49.3708 65.5042 49.7376 64.6049 50.7896C64.5805 50.8178 64.552 50.8461 64.5235 50.8743L62.3466 52.7768L62.3344 52.7889C59.9784 54.9978 58.9653 55.5218 57.1179 56.4771C56.7314 56.6786 56.3082 56.8963 55.7833 57.1784C55.5758 57.2913 55.3723 57.4283 55.1729 57.5775C54.9614 57.7387 54.7579 57.9039 54.5667 58.0652C53.5901 58.8794 53.0774 59.5404 52.7844 60.27C52.4793 61.0278 52.3694 61.9509 52.2188 63.2165C52.1578 63.7284 52.113 64.2323 52.0764 64.7361C52.0479 64.982 52.0357 65.2238 52.0235 65.4576ZM55.5269 30.0513C59.6855 25.6053 60.3853 29.6441 63.4452 30.4946C63.8155 30.5954 64.0922 30.6196 64.0637 30.7929C63.7952 32.5342 63.2214 32.8647 62.5826 32.8809C61.8746 32.901 61.3009 32.8889 60.8736 33.0864C60.3324 33.3404 59.9418 33.6709 59.6529 34.0579L55.3072 31.8611C55.4496 31.3532 55.5229 30.7526 55.5269 30.0513ZM59.2013 34.8963C58.2776 37.3389 59.5105 40.9747 55.3683 42.3129C55.12 44.3928 55.1282 46.4767 55.4252 48.5566L55.9298 48.5042C56.8372 48.4074 56.829 49.2216 56.3977 49.7497H53.7203C53.525 47.2546 53.0408 44.5258 53.2442 42.1436C51.8323 42.5185 50.9859 42.4177 49.4519 41.8413C48.7073 41.5591 45.6433 39.7453 44.8092 40.4829C44.3412 40.9021 45.5904 42.5668 42.502 45.5254L42.559 48.4518H43.0798C43.8692 48.4518 43.8285 49.2337 43.5396 49.7456H42.0138C41.0006 49.7456 41.2122 49.8545 41.2 48.7944L41.1755 46.517L41.0128 45.1062C41.0169 44.2638 41.6231 43.369 41.0413 41.3697C40.6588 40.0436 40.6873 38.9915 39.6822 38.8424C38.7504 40.7086 37.8552 42.4137 37.0699 44.3686C37.017 44.5016 36.9438 44.6266 36.8787 44.7555C35.9835 46.7951 35.6091 45.2634 36.1096 44.0502L36.4433 43.244C36.8705 41.5349 38.079 38.3264 39.2184 37.1374C43.5152 32.6471 52.2229 36.8955 54.7864 33.0098L59.2013 34.8963ZM54.8108 32.9937L54.8434 32.9413C54.8352 32.9574 54.823 32.9736 54.8108 32.9937ZM55.1607 32.3004C55.1445 32.3488 55.1241 32.4012 55.1078 32.4496L55.1607 32.3004ZM47.9789 65.4576H39.0597C38.3435 64.7522 37.5582 64.0186 36.7607 63.2729C35.0883 61.705 33.3427 60.0685 31.5483 58.0208C29.4975 55.679 29.2778 54.8688 28.6552 52.5753C28.5413 52.144 28.4111 51.6603 28.2402 51.0597L27.1741 47.3473L27.1619 47.307C26.5922 45.6544 26.5475 44.5621 26.7835 43.9333C26.8567 43.7398 26.9503 43.6108 27.0602 43.5423C27.1456 43.4858 27.2595 43.4657 27.3775 43.4778C27.6583 43.506 27.9716 43.6793 28.2564 43.9897L31.4221 51.4587C31.4506 51.5273 31.4913 51.5917 31.5361 51.6482C31.7232 51.9827 31.9755 52.3092 32.301 52.6196L37.9163 58.823C38.2214 59.1616 38.7463 59.1898 39.0841 58.8875C39.4259 58.5851 39.4544 58.0652 39.1492 57.7306L33.5299 51.5232C33.5055 51.495 33.481 51.4668 33.4526 51.4426C32.8707 50.8944 32.6876 50.3019 32.7893 49.8706C32.8219 49.7376 32.8788 49.6247 32.9602 49.5481C33.0375 49.4796 33.1393 49.4312 33.2654 49.4192C33.7659 49.3668 34.5064 49.7336 35.4016 50.7856C35.426 50.8138 35.4545 50.842 35.483 50.8702L37.6599 52.7728L37.6721 52.7849C40.0281 54.9937 41.0413 55.5177 42.8886 56.473C43.2752 56.6746 43.6983 56.8922 44.2232 57.1744C44.4308 57.2872 44.6342 57.4243 44.8336 57.5734C45.0452 57.7347 45.2486 57.8999 45.4399 58.0611C46.4164 58.8754 46.9291 59.5364 47.2221 60.266C47.5273 61.0238 47.6371 61.9468 47.7877 63.2125C47.8487 63.7244 47.8935 64.2282 47.9301 64.7321C47.9545 64.982 47.9667 65.2238 47.9789 65.4576ZM36.9845 65.7398C36.8583 65.8849 36.781 66.0743 36.781 66.2799V71.1733C36.781 71.6288 37.1554 71.9956 37.6111 71.9956H48.8334C49.2932 71.9956 49.6635 71.6247 49.6635 71.1733V66.2356C49.6635 65.7116 49.6309 65.1473 49.5943 64.6233C49.5577 64.0872 49.5089 63.5551 49.4478 63.0271C49.2851 61.6445 49.163 60.6328 48.7724 59.6614C48.3696 58.6658 47.7226 57.8072 46.5222 56.8035C46.3025 56.6181 46.0787 56.4327 45.8427 56.2594C45.5945 56.074 45.3259 55.8966 45.0248 55.7314C44.5365 55.4694 44.0808 55.2315 43.6658 55.0139C41.9568 54.1271 41.0209 53.6434 38.8196 51.5797C38.8033 51.5635 38.783 51.5474 38.7667 51.5353L36.6386 49.6852C35.3406 48.1817 34.0711 47.6819 33.0986 47.7867H33.0945C32.6184 47.8351 32.2115 48.0205 31.886 48.3026L29.7416 43.24H29.7376C29.705 43.1674 29.6643 43.0989 29.6114 43.0344C29.0173 42.329 28.2646 41.9179 27.5444 41.8453C27.052 41.7969 26.5759 41.9017 26.1609 42.1678C25.7662 42.4217 25.4407 42.8167 25.2372 43.3609C24.8792 44.3081 24.8873 45.7794 25.5872 47.8149L26.6451 51.5031C26.7997 52.0351 26.934 52.547 27.0602 52.9985C27.7519 55.558 27.996 56.465 30.3032 59.093C32.1301 61.1769 33.9164 62.8537 35.6336 64.462C36.0811 64.8893 36.5287 65.3085 36.9845 65.7398ZM38.5714 67.1062C38.6812 67.1304 38.7952 67.1304 38.9091 67.1062H47.9993V70.355H38.4412V67.1062H38.5714ZM63.018 65.7398C63.1441 65.8849 63.2214 66.0743 63.2214 66.2799V71.1733C63.2214 71.6288 62.8512 71.9956 62.3914 71.9956H51.1731C50.7133 71.9956 50.343 71.6247 50.343 71.1733V66.2356C50.343 66.2074 50.343 66.1751 50.3471 66.1469C50.3593 65.6189 50.3796 65.107 50.4122 64.6233C50.4488 64.0872 50.4976 63.5551 50.5587 63.0271C50.7214 61.6445 50.8435 60.6328 51.2341 59.6614C51.637 58.6658 52.2839 57.8072 53.4843 56.8035C53.704 56.6181 53.9278 56.4327 54.1638 56.2594C54.412 56.074 54.6806 55.8966 54.9817 55.7314C55.47 55.4694 55.9257 55.2315 56.3407 55.0139C58.0497 54.1271 58.9856 53.6434 61.1869 51.5797C61.2032 51.5635 61.2236 51.5474 61.2398 51.5353L63.3639 49.6771C64.6619 48.1736 65.9314 47.6738 66.9039 47.7786H66.908C67.384 47.827 67.7909 48.0124 68.1165 48.2946L70.2608 43.2319H70.2649C70.2975 43.1594 70.3381 43.0908 70.391 43.0263C70.9851 42.3209 71.7379 41.9098 72.4581 41.8373C72.9504 41.7889 73.4265 41.8937 73.8416 42.1597C74.2363 42.4137 74.5618 42.8087 74.7652 43.3528C75.1233 44.3001 75.1152 45.7713 74.4153 47.8068L73.3573 51.495C73.2027 52.0271 73.0684 52.539 72.9423 52.9904C72.2506 55.55 72.0064 56.4569 69.6993 59.085C67.8723 61.1689 66.086 62.8457 64.3689 64.454C63.9213 64.8893 63.4737 65.3085 63.018 65.7398ZM61.4311 67.1062C61.3212 67.1304 61.2073 67.1304 61.0934 67.1062H52.0032V70.355H61.5613V67.1062H61.4311Z" fill="#E9F1F9"/>
</svg>
