<svg width="100" height="100" viewBox="0 0 100 100" fill="none" xmlns="http://www.w3.org/2000/svg">
<rect width="100" height="100" rx="50" fill="#A8C9EA"/>
<path d="M80.9927 47.4675C83.749 46.0894 85.4902 43.2719 85.4902 40.1908V39.3552C85.4902 34.8609 81.848 31.2188 77.3538 31.2188C73.8516 31.2188 70.7432 33.4598 69.6352 36.7816C68.7952 39.3005 68.3665 41.7188 65.467 41.7188H35.5124C32.5177 41.7188 32.0584 38.9253 31.3441 36.7816C30.2373 33.4598 27.1277 31.2188 23.6266 31.2188C19.1324 31.2188 15.4902 34.8609 15.4902 39.3552V40.1908C15.4902 43.2719 17.2315 46.0894 19.9877 47.4675C21.0191 47.9827 21.0191 49.4548 19.9877 49.97C17.2315 51.3481 15.4902 54.1656 15.4902 57.2467V58.0823C15.4902 62.5766 19.1324 66.2188 23.6255 66.2188C27.1277 66.2188 30.2362 63.9777 31.3441 60.6559C32.1841 58.137 32.6129 55.7188 35.5124 55.7188H65.467C68.4616 55.7188 68.921 58.5122 69.6352 60.6559C70.7432 63.9777 73.8527 66.2188 77.3538 66.2188C81.847 66.2188 85.4891 62.5766 85.4891 58.0823V57.2467C85.4891 54.1645 83.7479 51.3481 80.9916 49.97C79.9613 49.4548 79.9613 47.9827 80.9927 47.4675Z" fill="#F8FBFF"/>
</svg>
