<svg width="100" height="100" viewBox="0 0 100 100" fill="none" xmlns="http://www.w3.org/2000/svg">
<rect width="100" height="100" rx="50" fill="#A8C9EA"/>
<path d="M49.501 43.3134C39.1095 43.3134 24.376 59.3777 24.376 69.518C24.376 74.085 27.8843 76.8134 33.7639 76.8134C40.155 76.8134 44.3752 73.5315 49.501 73.5315C54.6713 73.5315 58.9033 76.8134 65.2382 76.8134C71.1177 76.8134 74.626 74.085 74.626 69.518C74.626 59.3777 59.8925 43.3134 49.501 43.3134ZM30.228 41.6633C28.8671 37.129 24.6744 34.1925 20.8637 35.1033C17.0531 36.0141 15.068 40.428 16.4289 44.9623C17.7899 49.4965 21.9826 52.433 25.7932 51.5222C29.6038 50.6115 31.589 46.1976 30.228 41.6633ZM41.3144 38.944C45.3632 37.8788 47.3889 32.4089 45.8396 26.727C44.2902 21.0451 39.752 17.3038 35.7032 18.369C31.6544 19.4342 29.6287 24.9041 31.1781 30.586C32.7274 36.268 37.267 40.0105 41.3144 38.944ZM78.137 35.1046C74.3263 34.1938 70.1349 37.1303 68.7727 41.6646C67.4117 46.1989 69.3969 50.6128 73.2075 51.5235C77.0181 52.4343 81.2095 49.4978 82.5718 44.9636C83.9327 40.4293 81.9476 36.0154 78.137 35.1046ZM57.6876 38.944C61.7364 40.0092 66.2746 36.268 67.8239 30.586C69.3733 24.9041 67.3476 19.4355 63.2988 18.369C59.25 17.3025 54.7118 21.0451 53.1624 26.727C51.6131 32.4089 53.6388 37.8788 57.6876 38.944Z" fill="#F8FBFF"/>
<path d="M51.7584 69.432H48.3944C47.9304 69.432 47.6984 69.1807 47.6984 68.678V62.472H41.3764C40.835 62.472 40.5644 62.2207 40.5644 61.718V58.76C40.5644 58.2573 40.835 58.006 41.3764 58.006H47.6984V51.626C47.6984 51.162 47.9304 50.93 48.3944 50.93H51.7584C52.2224 50.93 52.4544 51.162 52.4544 51.626V58.006H58.6024C59.105 58.006 59.3564 58.2573 59.3564 58.76V61.718C59.3564 62.2207 59.105 62.472 58.6024 62.472H52.4544V68.678C52.4544 69.1807 52.2224 69.432 51.7584 69.432Z" fill="#A8C9EA"/>
</svg>
