<svg width="100" height="100" viewBox="0 0 100 100" fill="none" xmlns="http://www.w3.org/2000/svg">
<rect width="100" height="100" rx="50" fill="#A8C9EA"/>
<path d="M75 61.7812V23.7188C75 22.2121 73.8058 21 72.3214 21H35.7143C29.7991 21 25 25.8711 25 31.875V68.125C25 74.1289 29.7991 79 35.7143 79H72.3214C73.8058 79 75 77.7879 75 76.2812V74.4688C75 73.6191 74.6094 72.8488 74.0067 72.3504C73.5379 70.6059 73.5379 65.6328 74.0067 63.8883C74.6094 63.4012 75 62.6309 75 61.7812ZM39.2857 36.1797C39.2857 35.8059 39.5871 35.5 39.9554 35.5H63.6161C63.9844 35.5 64.2857 35.8059 64.2857 36.1797V38.4453C64.2857 38.8191 63.9844 39.125 63.6161 39.125H39.9554C39.5871 39.125 39.2857 38.8191 39.2857 38.4453V36.1797ZM39.2857 43.4297C39.2857 43.0559 39.5871 42.75 39.9554 42.75H63.6161C63.9844 42.75 64.2857 43.0559 64.2857 43.4297V45.6953C64.2857 46.0691 63.9844 46.375 63.6161 46.375H39.9554C39.5871 46.375 39.2857 46.0691 39.2857 45.6953V43.4297ZM67.567 71.75H35.7143C33.7388 71.75 32.1429 70.1301 32.1429 68.125C32.1429 66.1312 33.75 64.5 35.7143 64.5H67.567C67.3549 66.4371 67.3549 69.8129 67.567 71.75Z" fill="#F8FBFF"/>
</svg>
