<svg width="100" height="100" viewBox="0 0 100 100" fill="none" xmlns="http://www.w3.org/2000/svg">
<rect width="100" height="100" rx="50" fill="#A8C9EA"/>
<g clip-path="url(#clip0)">
<path d="M48.8976 49.5272C49.5052 50.1632 50.4948 50.1632 51.1111 49.5272L60.5642 39.7132C63.3073 36.8601 63.151 32.1335 60.0781 29.5038C57.4045 27.2093 53.4201 27.6218 50.9722 30.1655L50 31.171L49.0365 30.1741C46.5885 27.6218 42.6042 27.2093 39.9306 29.5038C36.8663 32.1335 36.7014 36.8601 39.4444 39.7132L48.8976 49.5272ZM74.0712 56.196C73.0469 55.2765 71.4497 55.3366 70.3733 56.196L62.3524 62.5468C61.3715 63.3288 60.1476 63.7499 58.8802 63.7499H48.6111C47.8472 63.7499 47.2222 63.1312 47.2222 62.3749C47.2222 61.6187 47.8472 60.9999 48.6111 60.9999H55.408C56.7882 60.9999 58.0729 60.0632 58.2986 58.714C58.5851 56.9952 57.2483 55.4999 55.5556 55.4999H41.6667C39.3229 55.4999 37.0573 56.2991 35.2344 57.7601L31.1979 60.9999H26.3889C25.625 60.9999 25 61.6187 25 62.3749V70.6249C25 71.3812 25.625 71.9999 26.3889 71.9999H57.3611C58.6198 71.9999 59.8437 71.5788 60.8333 70.7968L73.9583 60.3983C75.2778 59.3585 75.3819 57.3647 74.0712 56.196Z" fill="#E9F1F9"/>
</g>
<defs>
<clipPath id="clip0">
<rect width="50" height="44" fill="white" transform="translate(25 28)"/>
</clipPath>
</defs>
</svg>
