<svg width="100" height="100" viewBox="0 0 100 100" fill="none" xmlns="http://www.w3.org/2000/svg">
<rect width="100" height="100" rx="50" fill="#A8C9EA"/>
<path d="M85.907 55.1C85.57 55.1 85.25 55.174 84.939 55.28C82.646 47.371 75.363 41.585 66.715 41.585C65.424 41.585 64.165 41.717 62.947 41.962L11 47.155L11.333 51.449L47.885 58.26C47.793 59.02 47.731 59.785 47.731 60.569C47.731 71.054 56.231 79.553 66.716 79.553C75.919 79.553 83.589 73.004 85.328 64.313C85.517 64.35 85.709 64.386 85.907 64.386C87.955 64.386 89.622 62.302 89.622 59.742C89.622 57.182 87.956 55.1 85.907 55.1ZM66.716 70.473C61.245 70.473 56.811 66.037 56.811 60.569C56.811 55.101 61.246 50.664 66.716 50.664C72.188 50.664 76.621 55.101 76.621 60.569C76.621 66.037 72.188 70.473 66.716 70.473ZM85.907 63.147C85.771 63.147 85.642 63.122 85.513 63.092C85.623 62.264 85.701 61.426 85.701 60.569C85.701 59.163 85.537 57.797 85.247 56.475C85.459 56.395 85.678 56.337 85.907 56.337C87.273 56.337 88.385 57.863 88.385 59.74C88.385 61.62 87.273 63.147 85.907 63.147ZM64.811 36.399L56.264 24.652L58.86 23.146L64.811 36.399ZM79.205 26.526L70.658 38.273L76.611 25.02L79.205 26.526ZM67.311 34.45L65.811 20H68.811L67.311 34.45Z" fill="#F8FBFF"/>
</svg>
